<svg version="1.1" id="Capa_1" xmlns="http://www.w3.org/2000/svg" xmlns:xlink="http://www.w3.org/1999/xlink" x="0px" y="0px" width="91.468px" height="91.468px" viewBox="0 0 91.468 91.468" style="enable-background:new 0 0 91.468 91.468;" xml:space="preserve" xmlns:sketchjs="https://sketch.io/dtd/" sketchjs:version="3.0" sketchjs:keywords="transport, travel, ship, space, rocket, rockets, transports, transportation, several pack" sketchjs:license="Flaticon Basic License" sketchjs:author="[Freepik](http://www.flaticon.com/authors/freepik)" sketchjs:source="[Flaticon](http://www.flaticon.com/)">
<g>
	<g>
		<path d="M57.336,51.783c1.107-2.041,1.693-4.354,1.693-6.688c0-7.743-6.299-14.043-14.042-14.043
			c-7.743,0-14.043,6.3-14.043,14.043c0,2.589,0.724,5.13,2.095,7.353c2.583,4.188,7.05,6.688,11.948,6.688
			C50.144,59.136,54.877,56.318,57.336,51.783z M44.986,33.051c6.641,0,12.042,5.401,12.042,12.043c0,1.523-0.291,3.038-0.85,4.446
			c-0.021-0.021-0.047-0.039-0.067-0.062c-0.126-0.121-0.262-0.229-0.394-0.348c-0.266-0.24-0.534-0.479-0.816-0.697
			c-0.163-0.129-0.333-0.242-0.501-0.363c-0.265-0.188-0.527-0.375-0.802-0.549c-0.186-0.113-0.372-0.223-0.562-0.328
			c-0.271-0.155-0.55-0.306-0.828-0.442c-0.197-0.097-0.396-0.188-0.599-0.276c-0.287-0.125-0.578-0.24-0.872-0.35
			c-0.201-0.075-0.404-0.15-0.609-0.217c-0.186-0.059-0.367-0.114-0.555-0.168l1.996-2.635c0.333-0.439,0.247-1.066-0.191-1.4
			c-0.44-0.336-1.067-0.246-1.4,0.193L47.401,45.3c-0.128-0.019-0.254-0.04-0.383-0.054c-0.531-0.057-1.069-0.09-1.607-0.09
			c-0.58,0-1.154,0.037-1.722,0.101c-0.186,0.021-0.367,0.06-0.552,0.086c-0.378,0.056-0.755,0.114-1.125,0.197
			c-0.215,0.048-0.424,0.11-0.636,0.168c-0.332,0.09-0.663,0.183-0.987,0.294c-0.219,0.074-0.432,0.161-0.646,0.244
			c-0.308,0.123-0.612,0.25-0.912,0.393c-0.212,0.102-0.42,0.205-0.627,0.314c-0.291,0.154-0.575,0.318-0.856,0.492
			c-0.199,0.123-0.396,0.248-0.59,0.379c-0.277,0.188-0.545,0.393-0.81,0.6c-0.18,0.145-0.362,0.279-0.536,0.43
			c-0.27,0.23-0.527,0.48-0.782,0.732c-0.151,0.148-0.308,0.291-0.454,0.447c-0.036,0.039-0.077,0.07-0.113,0.109
			c-0.738-1.584-1.123-3.308-1.123-5.053C32.943,38.453,38.345,33.051,44.986,33.051z M44.986,57.136
			c-3.96,0-7.591-1.907-9.851-5.139c0.104-0.125,0.206-0.25,0.314-0.371c0.154-0.173,0.309-0.343,0.47-0.504
			c0.198-0.199,0.404-0.388,0.612-0.572c0.17-0.151,0.339-0.303,0.515-0.444c0.218-0.174,0.444-0.336,0.67-0.494
			c0.182-0.131,0.362-0.262,0.55-0.381c0.237-0.148,0.483-0.283,0.729-0.418c0.191-0.104,0.38-0.216,0.575-0.31
			c0.258-0.125,0.525-0.231,0.79-0.34c0.195-0.08,0.388-0.169,0.587-0.238c0.283-0.101,0.575-0.176,0.866-0.258
			c0.192-0.054,0.38-0.117,0.574-0.16c0.326-0.075,0.66-0.125,0.993-0.174c0.167-0.024,0.33-0.063,0.499-0.084
			c0.505-0.058,1.016-0.089,1.533-0.089c0.481,0,0.959,0.027,1.434,0.08c0.156,0.017,0.312,0.05,0.468,0.072
			c0.312,0.045,0.63,0.09,0.938,0.154c0.185,0.039,0.357,0.096,0.539,0.145c0.275,0.07,0.555,0.142,0.825,0.23
			c0.188,0.062,0.368,0.139,0.554,0.207c0.256,0.098,0.514,0.193,0.76,0.307c0.188,0.084,0.365,0.18,0.549,0.271
			c0.236,0.121,0.476,0.241,0.706,0.377c0.179,0.104,0.354,0.222,0.524,0.332c0.221,0.146,0.439,0.289,0.652,0.444
			c0.171,0.127,0.336,0.261,0.501,0.396c0.203,0.164,0.404,0.332,0.599,0.511c0.16,0.146,0.313,0.299,0.467,0.45
			c0.103,0.103,0.195,0.207,0.293,0.312C53.028,54.972,49.17,57.136,44.986,57.136z"/>
		<path d="M64.5,89.041c0.687,0.031,1.371,0.051,2.063,0.051c4.442,0,8.84-0.682,13.062-2.027c0.428-0.139,0.713-0.543,0.694-0.992
			c-0.479-11.918-5.3-22.908-13.24-30.274c0.731-3.179,1.115-6.414,1.115-9.638c0-15.223-8.146-29.355-21.281-37.049V1
			c0-0.553-0.447-1-1.001-1c-0.552,0-1,0.447-1,1v8.112C31.777,16.805,23.632,30.938,23.632,46.16c0,3.133,0.362,6.279,1.051,9.367
			c-8.094,7.338-13.023,18.383-13.536,30.42c-0.019,0.445,0.261,0.852,0.687,0.99c4.342,1.432,8.86,2.153,13.43,2.153
			c0.11,0,0.22-0.004,0.33-0.008l0.207-0.007c0.399-0.006,0.757-0.248,0.91-0.616c1.919-4.629,6.589-8.285,12.492-9.783
			c4.228-1.073,8.866-0.969,13.014,0.3c5.436,1.664,9.595,5.106,11.408,9.45C63.773,88.783,64.114,89.021,64.5,89.041z
			 M25.129,87.091c-4.057-0.015-8.071-0.625-11.945-1.821c0.637-10.81,4.979-20.716,12.042-27.527c0,0.002,0.001,0.004,0.002,0.004
			c0.238,0.854,0.508,1.691,0.797,2.523c0.041,0.118,0.08,0.237,0.122,0.356c0.282,0.791,0.589,1.569,0.917,2.342
			c0.061,0.146,0.123,0.285,0.185,0.429c0.335,0.77,0.69,1.524,1.069,2.27c0.056,0.107,0.114,0.217,0.171,0.324
			c0.396,0.76,0.809,1.51,1.249,2.244c0.013,0.021,0.025,0.045,0.038,0.063c0.446,0.74,0.921,1.463,1.413,2.177
			c0.078,0.112,0.154,0.229,0.233,0.34c0.479,0.682,0.979,1.348,1.498,1.998c0.097,0.123,0.195,0.244,0.293,0.364
			c0.532,0.654,1.081,1.298,1.653,1.921c0.074,0.079,0.15,0.157,0.225,0.237c0.583,0.627,1.183,1.239,1.806,1.836
			c0.026,0.024,0.05,0.052,0.076,0.076C31.525,79.062,27.211,82.636,25.129,87.091z M45.174,75.938c-2.016,0-4.01,0.227-5.938,0.674
			c-0.053-0.049-0.106-0.099-0.159-0.146c-0.691-0.627-1.361-1.271-2.004-1.938c-0.077-0.08-0.151-0.162-0.227-0.242
			c-0.642-0.678-1.262-1.371-1.853-2.086c-0.064-0.078-0.126-0.156-0.19-0.234c-0.592-0.727-1.16-1.469-1.699-2.229
			c-0.051-0.071-0.1-0.146-0.15-0.221c-0.54-0.773-1.055-1.564-1.539-2.375c-0.04-0.064-0.077-0.135-0.116-0.201
			c-0.485-0.82-0.944-1.656-1.37-2.516c-0.028-0.057-0.054-0.111-0.082-0.17c-0.428-0.871-0.829-1.754-1.195-2.654
			c-0.018-0.047-0.034-0.09-0.051-0.135c-0.369-0.916-0.708-1.848-1.01-2.795c-0.009-0.027-0.016-0.057-0.025-0.084
			c-0.305-0.961-0.577-1.938-0.813-2.926c-0.001-0.006-0.003-0.012-0.005-0.018c0-0.002-0.001-0.002-0.001-0.002
			c-0.741-3.119-1.117-6.31-1.117-9.48c0-14.514,7.756-28,20.283-35.335C58.438,18.16,66.195,31.647,66.195,46.16
			c0,3.258-0.396,6.533-1.183,9.738c-0.244,1.004-0.527,1.994-0.846,2.969c-0.011,0.025-0.018,0.051-0.022,0.074
			c-0.313,0.951-0.66,1.889-1.038,2.809c-0.02,0.047-0.036,0.094-0.057,0.141c-0.375,0.9-0.782,1.785-1.221,2.656
			c-0.029,0.061-0.059,0.121-0.089,0.182c-0.434,0.854-0.899,1.688-1.396,2.512c-0.043,0.068-0.081,0.144-0.127,0.215
			c-0.488,0.806-1.014,1.591-1.561,2.359c-0.056,0.078-0.109,0.156-0.166,0.236c-0.545,0.758-1.119,1.492-1.718,2.215
			c-0.069,0.084-0.139,0.168-0.208,0.252c-0.599,0.707-1.224,1.396-1.871,2.062c-0.084,0.086-0.166,0.174-0.25,0.26
			c-0.646,0.656-1.32,1.293-2.017,1.91c-0.059,0.051-0.116,0.104-0.176,0.156C49.978,76.263,47.595,75.938,45.174,75.938z
			 M54.448,77.632c0.01-0.008,0.018-0.019,0.022-0.022c0.652-0.605,1.279-1.23,1.89-1.869c0.087-0.094,0.178-0.184,0.266-0.275
			c0.582-0.619,1.14-1.258,1.684-1.906c0.103-0.123,0.203-0.246,0.306-0.371c0.532-0.654,1.046-1.322,1.537-2.008
			c0.078-0.105,0.149-0.219,0.229-0.324c0.508-0.723,0.998-1.451,1.461-2.201c0.004-0.008,0.01-0.014,0.015-0.021
			c0.459-0.746,0.889-1.514,1.301-2.285c0.062-0.113,0.124-0.229,0.186-0.342c0.39-0.746,0.752-1.506,1.099-2.275
			c0.063-0.146,0.13-0.293,0.192-0.438c0.336-0.772,0.65-1.56,0.941-2.354c0.045-0.123,0.086-0.246,0.129-0.369
			c0.299-0.834,0.574-1.678,0.819-2.533c0.002-0.004,0.004-0.01,0.005-0.016c6.917,6.832,11.159,16.678,11.764,27.367
			c-4.229,1.264-8.67,1.838-13.074,1.686C63.257,82.904,59.417,79.545,54.448,77.632z"/>
		<path d="M38.956,84.156h13.552c0.554,0,1-0.449,1-1c0-0.553-0.446-1-1-1H38.956c-0.552,0-1,0.447-1,1
			C37.956,83.707,38.402,84.156,38.956,84.156z"/>
		<path d="M38.956,87.812h13.552c0.554,0,1-0.447,1-1c0-0.554-0.446-1-1-1H38.956c-0.552,0-1,0.446-1,1
			C37.956,87.365,38.402,87.812,38.956,87.812z"/>
		<path d="M38.956,91.468h13.552c0.554,0,1-0.446,1-1c0-0.551-0.446-1-1-1H38.956c-0.552,0-1,0.449-1,1
			C37.956,91.021,38.402,91.468,38.956,91.468z"/>
	</g>
</g>
<g>
</g>
<g>
</g>
<g>
</g>
<g>
</g>
<g>
</g>
<g>
</g>
<g>
</g>
<g>
</g>
<g>
</g>
<g>
</g>
<g>
</g>
<g>
</g>
<g>
</g>
<g>
</g>
<g>
</g>
</svg>